PathFileType	4	(X/Y/Z)	walk-thru1-2-TP.trc
DataRate	CameraRate	NumFrames	NumMarkers	Units	OrigDataRate	OrigDataStartFrame	OrigNumFrames
120.00	120.00	       5	60	mm	120.00	276	       441
Frame#	Time	Top.Head			Front.Head			Rear.Head			Jaw			C7			R.Clavicle			L.Clavicle			R.Shoulder			L.Shoulder			R.Scapula			L.Scapula			R.Scap.Inf			R.Biceps.Lateral			R.Elbow			R.Elbow.Medial			R.Forearm			R.Ulna			R.Radius			R.Wrist			R.Thumb.M1			R.Thumb.M2			R.Thumb.M3			R.Finger3.M1			R.Finger3.M2			R.Finger3.M3			L.Biceps.Lateral			L.Elbow			L.Elbow.Medial			L.Forearm			L.Ulna			L.Radius			L.Wrist			L.Thumb.M1			L.Thumb.M2			L.Thumb.M3			L.Finger3.M1			L.Finger3.M2			L.Finger3.M3			V.Sacral			R.ASIS			L.ASIS			R.Thigh			R.Thigh.Front			R.Knee			R.Knee.Medial			R.Shank			R.Ankle			R.Ankle.Medial			R.Heel			R.Toe			R.MedFoot			L.Thigh			L.Knee			L.Knee.Medial			L.Shank			L.Ankle			L.Ankle.Medial			L.Heel			L.Toe			L.MedFoot			V_mid_ASIS			V_R_Knee_JC			V_L_Knee_JC			V_R_Elbow_JC			V_L_Elbow_JC			V_R_Ankle_JC			V_L_Ankle_JC			V_R_Wrist_JC			V_L_Wrist_JC			V_R_ScaTrpz_1stMC_JC			V_R_1stMC_1stPP_JC			V_R_1stPP_1stDP_JC			V_R_LunCap_3rdMC_JC			V_R_3rdMC_3rdPP_JC			V_R_3rdPP_3rdMP_JC			V_R_3rdMP_3rdDP_JC			V_L_ScaTrpz_1stMC_JC			V_L_1stMC_1stPP_JC			V_L_1stPP_1stDP_JC			V_L_LunCap_3rdMC_JC			V_L_3rdMC_3rdPP_JC			V_L_3rdPP_3rdMP_JC			V_L_3rdMP_3rdPP_JC			V_ROOT_JC			V_R_Hip_JC			V_L_Hip_JC			V_R_GlenHum_JC			V_L_GlenHum_JC			V_ForeHead_Ctr			V_Vertex			V_Sagit_Lambdoid_Suture			V_R_FrontoTemp			V_L_FrontoTemporal			V_R_ParietalOccip			V_L_ParietalOcciptal			V_R_Temporal			V_L_Temporal			V_mid_FrontRearHead			V_mid_RLGlenHumCtrs			V_C7_vert			V_C1_vert			V_Mid_Hip			
		X1	Y1	Z1	X2	Y2	Z2	X3	Y3	Z3	X4	Y4	Z4	X5	Y5	Z5	X6	Y6	Z6	X7	Y7	Z7	X8	Y8	Z8	X9	Y9	Z9	X10	Y10	Z10	X11	Y11	Z11	X12	Y12	Z12	X13	Y13	Z13	X14	Y14	Z14	X15	Y15	Z15	X16	Y16	Z16	X17	Y17	Z17	X18	Y18	Z18	X19	Y19	Z19	X20	Y20	Z20	X21	Y21	Z21	X22	Y22	Z22	X23	Y23	Z23	X24	Y24	Z24	X25	Y25	Z25	X26	Y26	Z26	X27	Y27	Z27	X28	Y28	Z28	X29	Y29	Z29	X30	Y30	Z30	X31	Y31	Z31	X32	Y32	Z32	X33	Y33	Z33	X34	Y34	Z34	X35	Y35	Z35	X36	Y36	Z36	X37	Y37	Z37	X38	Y38	Z38	X39	Y39	Z39	X40	Y40	Z40	X41	Y41	Z41	X42	Y42	Z42	X43	Y43	Z43	X44	Y44	Z44	X45	Y45	Z45	X46	Y46	Z46	X47	Y47	Z47	X48	Y48	Z48	X49	Y49	Z49	X50	Y50	Z50	X51	Y51	Z51	X52	Y52	Z52	X53	Y53	Z53	X54	Y54	Z54	X55	Y55	Z55	X56	Y56	Z56	X57	Y57	Z57	X58	Y58	Z58	X59	Y59	Z59	X60	Y60	Z60	

276	2.292	393.57968	78.44412	1562.03528	493.77945	70.31429	1460.41833	281.58563	81.33016	1481.11804	462.92429	55.29233	1320.43237	262.48297	63.62740	1371.76501	335.64151	-54.22496	1282.02441	366.19382	159.27382	1287.88123	274.95859	-123.47810	1278.79126	326.47104	258.35507	1289.37415	205.79507	-15.25464	1296.80530	221.60373	166.50441	1296.27637	158.90559	6.41414	1216.10388	263.02277	-176.58910	1138.41748	196.54901	-184.06741	986.36957	179.28114	-108.11219	976.51392	253.68077	-190.20441	895.70813	200.42651	-208.02219	821.44525	258.88779	-175.95604	758.14783	240.04366	-213.68181	726.38098	269.06839	-178.28482	700.64380	272.67874	-162.21419	664.11987	265.74594	-150.32089	623.12457	233.39113	-225.52837	648.22528	221.79643	-202.79327	599.83661	201.50078	-179.75337	573.11908	323.19144	322.48581	1143.83118	282.51956	340.23801	997.93097	251.83662	266.11194	987.76746	368.19824	310.94141	939.08740	370.04224	349.10083	847.48608	415.16199	282.59738	811.13086	434.54102	329.43552	786.00873	448.24792	284.01025	775.98157	457.35229	260.96994	738.58319	463.29373	251.81395	688.87402	468.92886	325.53854	703.04553	472.57715	313.13159	663.50677	457.50449	283.22839	628.90466	147.25047	59.60790	906.96075	339.35037	-89.67676	967.66467	330.46902	229.02121	954.45532	421.22269	-130.60464	594.15399	518.22339	-50.20500	530.71368	486.24869	-93.35249	466.05038	491.20615	22.10741	462.99518	498.24567	-49.38219	296.82175	438.61047	-67.36894	77.38341	461.72736	21.08919	95.70991	387.55630	-7.14755	46.20078	578.25397	-52.76445	60.36307	530.55719	-7.65163	80.95349	289.37128	234.40564	575.95984	287.79361	197.40459	439.13126	302.70901	77.20643	426.97864	266.57059	133.69563	247.63544	176.55453	147.98457	65.81490	191.16275	58.00077	85.67827	117.22506	99.59199	45.54272	323.58694	112.98320	39.27929	265.79816	80.89486	62.91460																																																																																																																															
277	2.300	398.86005	77.92113	1560.65759	499.59381	68.08769	1460.32776	286.42807	79.67617	1480.14197	468.00870	55.92017	1319.06812	268.79398	63.53134	1370.63074	340.33990	-54.16133	1281.84546	371.48563	159.84842	1287.12756	280.71545	-124.13130	1277.35657	331.06140	258.30478	1288.77502	211.70525	-15.17983	1295.97180	226.25919	165.73512	1295.96277	164.83333	5.71289	1215.01208	268.49304	-176.92624	1137.31763	202.99660	-183.94043	985.03174	185.96494	-107.53215	975.56042	259.66626	-190.70610	894.44635	207.18237	-207.87402	820.22235	264.30508	-175.82874	757.35492	245.32101	-214.10100	725.61871	274.91342	-179.86990	699.55292	276.79376	-163.37541	662.92950	272.54468	-150.48174	622.71484	239.21918	-225.98010	646.80609	227.82953	-202.63177	598.43146	207.15331	-179.81305	571.83960	327.27847	322.22162	1143.52063	287.83347	339.23465	996.35095	254.35277	265.19226	988.38196	373.90555	310.33414	938.58118	374.07773	347.94489	846.80145	421.06119	282.67560	808.94507	438.88171	329.34976	784.82275	453.14850	283.42584	775.24335	463.45334	261.19232	738.19647	469.13596	250.29228	687.15656	474.00418	326.81897	701.89282	477.24881	313.79370	662.06433	463.48892	282.46585	628.03668	152.94774	58.57426	906.42426	345.08118	-90.25202	966.79260	335.93005	228.18616	952.77081	426.49313	-133.12259	593.00079	524.43353	-50.33011	530.51337	492.55286	-94.16682	466.35718	497.34393	22.52015	462.24890	508.31216	-48.56323	297.47644	454.48996	-67.57175	76.86928	473.83990	21.42706	95.53536	402.40308	-8.95537	45.41697	593.65271	-49.38519	60.60196	545.55920	-7.06243	81.00241	294.04565	233.59358	575.60931	291.35208	198.06886	439.10388	305.83307	77.56361	426.15274	267.49533	133.70195	246.90028	176.58153	148.02203	66.01643	191.55684	58.51277	85.86842	117.19460	99.49467	45.82624	324.09183	113.30800	38.98284	265.70248	80.73363	62.85035																																																																																																																															
278	2.308	404.67358	77.51157	1559.61511	504.55478	67.44484	1459.41711	292.16632	80.08134	1479.10083	473.12677	54.15335	1319.10779	273.70850	64.19882	1369.60852	346.76489	-55.23071	1281.49890	376.32761	158.80919	1286.32458	285.99841	-124.33941	1276.34241	336.81894	257.29312	1287.96301	216.76447	-15.58500	1294.33289	230.77240	164.51006	1295.31873	170.51534	6.08370	1213.64343	274.33334	-177.43015	1136.12646	208.82816	-184.01456	983.45642	191.76164	-109.47343	973.97229	265.27036	-189.97807	894.14825	212.65971	-208.65976	819.33417	271.56720	-176.20827	756.55267	251.94815	-213.64528	723.98737	280.72382	-180.13814	698.22986	282.65768	-162.63907	661.45624	279.24023	-152.16948	621.95325	245.65938	-227.05882	645.56555	233.99908	-202.39433	597.57800	213.45518	-180.42548	570.95172	332.78516	320.50711	1142.65820	292.90356	339.24435	996.18323	261.26166	265.51157	986.88940	378.14575	309.27060	937.57172	378.43729	346.60004	845.41394	425.57874	280.72388	807.75244	442.64999	329.30484	783.94348	458.07132	283.38483	773.68524	468.79498	260.08704	737.12463	474.72375	251.11993	686.75897	477.09433	325.31421	701.33405	481.04803	313.19461	661.14038	467.72510	281.55887	627.12683	158.59387	58.05029	905.55243	351.07159	-91.11111	965.97076	341.43661	227.77945	952.41034	432.52689	-132.40195	591.50861	530.48969	-50.70800	530.35846	499.30148	-93.49155	465.89795	503.88428	22.52232	461.56345	518.11133	-48.12012	297.39456	469.29272	-68.06277	76.26103	487.23825	21.26023	95.22771	416.02109	-10.87283	44.63331	608.39233	-46.26945	60.84266	559.27887	-4.80870	80.93389	299.13358	233.62502	574.73523	294.21326	197.28238	438.64319	308.53674	76.68726	425.40659	269.36847	133.70146	246.24786	176.87997	147.96420	66.33858	191.65704	58.31596	85.89209	117.58188	99.06942	46.38899	324.11395	113.51788	39.10892	265.86874	80.82999	62.86787																																																																																																																															
279	2.317	409.29013	75.87409	1558.99109	510.17883	67.42967	1458.36108	297.36337	78.43147	1478.51404	478.32831	54.43524	1318.55591	279.14511	61.94402	1369.58521	351.06424	-56.01836	1280.59485	382.16525	157.68799	1284.79858	292.19162	-125.79274	1275.89551	341.83557	256.22800	1286.67712	222.70569	-16.57908	1293.71289	237.00429	163.81705	1294.79749	176.57837	4.19248	1213.21985	280.44406	-177.13196	1134.75891	214.66667	-184.97089	982.64478	197.37341	-108.67768	972.86157	272.00174	-191.68655	892.81750	218.75145	-208.96675	818.11456	277.49002	-177.94533	755.65753	258.51910	-214.72511	723.39343	287.43423	-180.91913	697.59094	290.28198	-163.59084	660.31171	286.16245	-153.40135	620.54724	251.05350	-227.80188	644.68958	239.85616	-203.20094	597.44049	220.03493	-180.21519	569.37848	337.72534	320.45984	1141.20667	297.95596	336.67947	995.56799	266.44684	263.37634	985.67932	383.31894	309.88699	936.57715	383.37521	346.07373	844.08936	431.24344	281.05292	807.05969	447.03500	328.68762	782.21417	463.54318	283.83008	772.45477	474.71970	259.73547	736.21875	481.33020	250.48280	686.29425	481.86002	324.40820	699.81293	486.11121	312.86383	660.39667	473.41037	279.90088	625.86298	164.56662	57.28791	904.96246	357.01144	-91.08234	965.19983	346.60251	227.06967	951.66571	437.97165	-132.94142	590.70148	536.27972	-50.66102	530.36737	506.30255	-93.05434	465.45279	509.57092	22.48907	461.06247	527.47644	-47.20554	298.53586	484.73193	-69.61267	75.65602	499.80475	20.67126	95.17274	428.73529	-11.67592	43.39174	621.39520	-43.91643	61.32199	571.38989	-4.82162	81.23753	303.19168	232.94229	573.89233	297.34354	196.32858	437.82422	311.32202	76.81764	424.94571	270.60339	133.16612	245.67819	177.41432	147.88008	66.46539	192.23341	58.04458	86.57360	117.64725	99.18242	46.36638	324.14578	113.62431	39.04829	265.98169	80.79792	62.87777																																																																																																																															
280	2.325	414.87817	76.27326	1557.70032	515.08661	67.54517	1457.57019	303.20853	78.68542	1477.84180	483.25656	54.63569	1317.19519	285.22696	62.66369	1369.24561	357.58707	-56.12618	1279.12463	386.64157	157.73320	1284.91943	297.44788	-125.59991	1274.98767	346.33194	256.88248	1286.18481	228.19077	-17.92390	1292.78101	242.64070	163.73056	1293.15137	181.51984	4.25608	1212.15942	286.51501	-178.30556	1133.14368	221.38718	-184.85521	981.53552	205.26970	-108.62825	971.64984	278.72440	-192.47102	891.56458	225.36600	-209.29442	817.10278	284.28851	-177.66693	754.33966	264.37875	-215.47925	721.87012	294.82632	-182.03786	696.32086	296.68384	-163.44551	659.28180	293.21460	-153.38432	618.74280	257.87012	-227.47603	643.68347	246.79533	-202.57352	595.11920	227.49484	-179.49042	568.28149	343.29971	319.39655	1140.08472	302.22644	335.83664	994.43970	272.49799	260.92178	984.56476	387.51456	306.79510	934.80499	387.23959	344.63004	842.82831	434.93945	280.94763	804.90454	451.79886	328.41064	781.10852	468.10327	282.78061	772.08472	479.47849	260.25931	735.21698	486.65027	250.22784	684.79810	486.31824	324.04138	698.04510	489.94592	311.64096	659.65161	477.59808	279.82645	625.47784	170.81000	57.02500	903.82043	362.99384	-92.61498	964.20587	352.60931	225.78027	950.78650	444.12033	-132.36046	589.11157	543.27930	-51.06996	530.39838	513.28955	-92.64170	465.54938	516.15759	23.93846	459.65967	537.31958	-47.12267	298.10373	496.24057	-68.87502	74.87349	510.16592	21.05637	94.74984	440.85010	-12.89563	42.06160	633.96155	-39.73441	62.50597	582.20380	-3.23348	81.94307	307.27304	232.14436	573.33978	300.72427	195.86890	437.47974	314.51834	76.55730	423.60138	271.71478	132.97549	245.06482	177.39166	147.67958	66.81805	192.23341	58.04458	86.57360	117.88949	99.22604	46.91194	323.70966	112.02216	38.60249	266.29477	80.09631	62.86634																																																																																																																															
